<svg width="24" height="23" viewBox="0 0 24 23" fill="none" xmlns="http://www.w3.org/2000/svg">
<g filter="url(#filter0_d)">
<path d="M18.2222 1.66667V13.3333H5.77778V1.66667H18.2222ZM18.2222 0H5.77778C4.8 0 4 0.75 4 1.66667V13.3333C4 14.25 4.8 15 5.77778 15H18.2222C19.2 15 20 14.25 20 13.3333V1.66667C20 0.75 19.2 0 18.2222 0Z" fill="#212121"/>
<path d="M18.5972 1.66667V1.29167H18.2222H5.77778H5.40278V1.66667V13.3333V13.7083H5.77778H18.2222H18.5972V13.3333V1.66667ZM5.77778 0.375H18.2222C19.0161 0.375 19.625 0.979537 19.625 1.66667V13.3333C19.625 14.0205 19.0161 14.625 18.2222 14.625H5.77778C4.98394 14.625 4.375 14.0205 4.375 13.3333V1.66667C4.375 0.979537 4.98394 0.375 5.77778 0.375Z" stroke="black" stroke-width="0.75"/>
</g>
<defs>
<filter id="filter0_d" x="0" y="0" width="24" height="23" filterUnits="userSpaceOnUse" color-interpolation-filters="sRGB">
<feFlood flood-opacity="0" result="BackgroundImageFix"/>
<feColorMatrix in="SourceAlpha" type="matrix" values="0 0 0 0 0 0 0 0 0 0 0 0 0 0 0 0 0 0 127 0"/>
<feOffset dy="4"/>
<feGaussianBlur stdDeviation="2"/>
<feColorMatrix type="matrix" values="0 0 0 0 0 0 0 0 0 0 0 0 0 0 0 0 0 0 0.25 0"/>
<feBlend mode="normal" in2="BackgroundImageFix" result="effect1_dropShadow"/>
<feBlend mode="normal" in="SourceGraphic" in2="effect1_dropShadow" result="shape"/>
</filter>
</defs>
</svg>
